<svg xmlns="http://www.w3.org/2000/svg" viewBox="0 0 128 128" width="128" height="128">
  <defs>
    <radialGradient id="g" cx="50%" cy="40%" r="70%">
      <stop offset="0%" stop-color="#ffffff" stop-opacity="0.9"/>
      <stop offset="40%" stop-color="#cfd4db" stop-opacity="0.95"/>
      <stop offset="100%" stop-color="#7c8696"/>
    </radialGradient>
    <linearGradient id="rim" x1="0%" y1="0%" x2="100%" y2="100%">
      <stop offset="0%" stop-color="#3a3f48"/>
      <stop offset="100%" stop-color="#1f232a"/>
    </linearGradient>
  </defs>
  <g fill="none" stroke-linejoin="round" stroke-linecap="round">
    <circle cx="64" cy="64" r="62" fill="url(#g)" stroke="#0f1115" stroke-opacity="0.15"/>
    <g transform="translate(64 64)">
      <g fill="url(#rim)" stroke="#0f1115" stroke-opacity="0.2">
        <path d="M0-48 10-46 16-56 28-50 30-38 42-34 42-22 52-16 48-6 56 0 48 6 52 16 42 22 42 34 30 38 28 50 16 56 10 46 0 48 -10 46 -16 56 -28 50 -30 38 -42 34 -42 22 -52 16 -48 6 -56 0 -48 -6 -52 -16 -42 -22 -42 -34 -30 -38 -28 -50 -16 -56 -10 -46z"/>
        <circle cx="0" cy="0" r="30" fill="url(#g)" stroke="#0f1115" stroke-opacity="0.25"/>
        <circle cx="0" cy="0" r="10" fill="#0f1115" fill-opacity="0.35"/>
      </g>
    </g>
  </g>
</svg>

